<svg width="16" height="16" viewBox="0 0 16 16" fill="none" xmlns="http://www.w3.org/2000/svg">
<path d="M2.67203 4.82501V0.254473C2.67203 0.113932 2.55673 0 2.41449 0H0.289738C0.1475 0 0.0321932 0.113931 0.0321932 0.254473V13.1272C0.0321932 13.3539 0.309606 13.4674 0.47185 13.3071L2.5966 11.2077C2.6449 11.16 2.67203 11.0953 2.67203 11.0278V9.33006C2.67203 9.26257 2.69917 9.19784 2.74747 9.15012L3.84203 8.06861C3.94261 7.96923 4.10568 7.96923 4.20626 8.06861L5.74143 9.58547C5.84201 9.68485 5.84201 9.84597 5.74143 9.94535L0.0754333 15.5438C0.0271342 15.5915 0 15.6562 0 15.7237V15.7455C0 15.8861 0.115307 16 0.257545 16H3.24141C3.30971 16 3.37522 15.9732 3.42352 15.9255L7.60863 11.7903C7.70921 11.6909 7.87228 11.6909 7.97286 11.7903L12.1258 15.8937C12.1741 15.9414 12.2396 15.9682 12.3079 15.9682H15.7425C15.8847 15.9682 16 15.8543 16 15.7137V0.252875C16 0.165919 15.9287 0.0954274 15.8407 0.0954274C15.7984 0.0954274 15.7579 0.112016 15.728 0.141543L8.93865 6.84988C8.83807 6.94926 8.83807 7.11038 8.93865 7.20976L10.4094 8.663C10.51 8.76238 10.6728 8.7627 10.7733 8.66333L12.9209 6.54138C13.0831 6.38108 13.3602 6.495 13.3602 6.72171V12.9045C13.3602 13.1312 13.0827 13.2448 12.9205 13.0845L5.97688 6.22368C5.8763 6.1243 5.8763 5.96318 5.97688 5.8638L11.4718 0.434413C11.6341 0.274104 11.5191 0 11.2897 0H8.28374C8.21544 0 8.14993 0.0268103 8.10163 0.0745333L3.11169 5.00495C2.94944 5.16526 2.67203 5.05172 2.67203 4.82501Z" fill="#FF3131"/>
</svg>
