<svg width="249" height="252" viewBox="0 0 249 252" fill="none" xmlns="http://www.w3.org/2000/svg">
<path d="M42 75.8431V4C42 1.79086 40.2091 0 38 0H5C2.79086 0 1 1.79086 1 4V206.343C1 209.907 5.30857 211.691 7.82842 209.172L40.8284 176.172C41.5786 175.421 42 174.404 42 173.343V146.657C42 145.596 42.4214 144.579 43.1716 143.828L60.1716 126.828C61.7337 125.266 64.2663 125.266 65.8284 126.828L89.6716 150.672C91.2337 152.234 91.2337 154.766 89.6716 156.328L1.67157 244.328C0.921427 245.079 0.5 246.096 0.5 247.157V247.5C0.5 249.709 2.29086 251.5 4.5 251.5H50.8431C51.904 251.5 52.9214 251.079 53.6716 250.328L118.672 185.328C120.234 183.766 122.766 183.766 124.328 185.328L188.828 249.828C189.579 250.579 190.596 251 191.657 251H245C247.209 251 249 249.209 249 247V3.97487C249 2.60804 247.892 1.5 246.525 1.5C245.869 1.5 245.239 1.76075 244.775 2.22488L139.328 107.672C137.766 109.234 137.766 111.766 139.328 113.328L162.172 136.172C163.734 137.734 166.261 137.739 167.823 136.177L201.178 102.822C203.697 100.303 208 102.093 208 105.657V202.843C208 206.407 203.691 208.191 201.172 205.672L93.3284 97.8284C91.7663 96.2663 91.7663 93.7337 93.3284 92.1716L178.672 6.82843C181.191 4.30857 179.407 0 175.843 0H129.157C128.096 0 127.079 0.421424 126.328 1.17157L48.8284 78.6716C46.3086 81.1914 42 79.4068 42 75.8431Z" fill="white"/>
</svg>
